<svg xmlns="http://www.w3.org/2000/svg" width="340" height="88.066" viewBox="0 0 340 88.066"><g transform="translate(246.375)"><path d="M259.158,0a5.325,5.325,0,0,0-2.443,10.056v4.632H261.6V10.056A5.325,5.325,0,0,0,259.158,0Zm0,8.978a3.655,3.655,0,1,1,3.655-3.655A3.652,3.652,0,0,1,259.158,8.978Z" transform="translate(-212.531)" fill="#00263a"/><path d="M256.555,35.152h0V74a10.765,10.765,0,0,0,4.818,9V44.13A10.758,10.758,0,0,0,256.555,35.152Z" transform="translate(-212.168 4.687)" fill="#00263a"/><g transform="translate(0 63.691)"><path d="M222.726,56.259h0l.017-.017Z" transform="translate(-216.678 -56.192)" fill="#00263a"/><path d="M226.352,61.049h3.15a.338.338,0,0,0,.337-.337.375.375,0,0,0-.152-.286l-5.9-4.178h0a.285.285,0,0,0-.168-.051.34.34,0,0,0-.185.051l-5.929,4.194a.358.358,0,0,0-.118.253.338.338,0,0,0,.337.337h3.133A11.057,11.057,0,0,0,231.894,71.51a10.237,10.237,0,0,0,1.028-.051A11.047,11.047,0,0,1,226.352,61.049Z" transform="translate(-217.39 -56.198)" fill="#00263a"/></g><g transform="translate(23.954 27.895)"><path d="M245.129,35.664V65.732a10.8,10.8,0,0,1-6.6,9.955h0a9.491,9.491,0,0,0,.977.051,11.057,11.057,0,0,0,11.05-11.05l-.034-29.934a10.82,10.82,0,0,1,6.89-10.073,10.029,10.029,0,0,0-1.23-.067A11.046,11.046,0,0,0,245.129,35.664Z" transform="translate(-238.526 -24.614)" fill="#00263a"/><path d="M255.187,24.673Z" transform="translate(-236.304 -24.606)" fill="#00263a"/></g><g transform="translate(78.094 63.691)"><path d="M294.666,56.259h0l-.017-.017Z" transform="translate(-285.182 -56.192)" fill="#00263a"/><path d="M292.866,61.049h-3.15a.338.338,0,0,1-.337-.337.375.375,0,0,1,.152-.286l5.9-4.178h0a.285.285,0,0,1,.168-.051.34.34,0,0,1,.185.051l5.929,4.194a.358.358,0,0,1,.118.253.338.338,0,0,1-.337.337h-3.133A11.057,11.057,0,0,1,287.324,71.51a10.237,10.237,0,0,1-1.028-.051A11.047,11.047,0,0,0,292.866,61.049Z" transform="translate(-286.296 -56.198)" fill="#00263a"/></g><g transform="translate(50.788 27.895)"><path d="M274.483,35.664V65.732a10.8,10.8,0,0,0,6.6,9.955h0a9.491,9.491,0,0,1-.977.051,11.057,11.057,0,0,1-11.05-11.05l.034-29.934a10.82,10.82,0,0,0-6.89-10.073,10.029,10.029,0,0,1,1.23-.067A11.046,11.046,0,0,1,274.483,35.664Z" transform="translate(-262.203 -24.614)" fill="#00263a"/><path d="M262.2,24.673Z" transform="translate(-262.203 -24.606)" fill="#00263a"/></g><path d="M239.2,20.586a5.328,5.328,0,0,1-8.473,4.3,5.311,5.311,0,0,0,2.173-4.3h6.3Z" transform="translate(-215.612 2.745)" fill="#00263a"/><path d="M239.2,20.586a5.328,5.328,0,0,1-8.473,4.3,5.311,5.311,0,0,0,2.173-4.3h6.3Z" transform="translate(-215.612 2.745)" fill="#00263a"/><path d="M302.6,21.122a5.285,5.285,0,0,1-5.323,5.508,5.377,5.377,0,0,1-3.15-1.028,5.332,5.332,0,0,0,0-8.591H231.719a5.332,5.332,0,0,0,0,8.591,5.225,5.225,0,0,1-3.15,1.028,5.288,5.288,0,0,1-5.323-5.593,5.966,5.966,0,0,1,6.3-5.862h66.74A6.135,6.135,0,0,1,302.6,21.122Z" transform="translate(-216.609 2.023)" fill="#00263a"/><path d="M278.314,20.586a5.328,5.328,0,0,0,8.473,4.3,5.311,5.311,0,0,1-2.173-4.3h-6.3Z" transform="translate(-209.267 2.745)" fill="#00263a"/></g><g transform="translate(0 16.036)"><path d="M22.421,16.177a5.686,5.686,0,0,0-5.02,2.577,5.626,5.626,0,0,0-.825,2.662V69.407A16.126,16.126,0,0,1,11.792,81.2,15.918,15.918,0,0,1,0,86.017v-.741a14.235,14.235,0,0,0,7.563-6.1,17.816,17.816,0,0,0,3.1-10.006V21.416a5.13,5.13,0,0,0-1.786-3.689,5.8,5.8,0,0,0-4.06-1.533H3.639v-.825H23.6v.825H22.421Z" transform="translate(0 -13.987)" fill="#00263a"/><path d="M84.5,16.151H83.134a4.369,4.369,0,0,0-3.74,1.752,3.447,3.447,0,0,0-.64,1.752v27.98q0,8.642-6.064,13.661t-16.643,5.02q-10.587,0-16.677-4.986c-4.076-3.318-6.115-7.867-6.115-13.611v-28a3.127,3.127,0,0,0-1.28-2.527,4.787,4.787,0,0,0-3.1-1.044H27.512v-.842H44.845v.825H43.481a4.755,4.755,0,0,0-3.1,1.044,3.127,3.127,0,0,0-1.28,2.527V46.691q0,8.06,4.514,12.7c3.015,3.1,7.26,4.649,12.769,4.649s9.9-1.466,13.223-4.4,4.969-6.94,4.969-12.044V19.723a3.522,3.522,0,0,0-1.314-2.577,4.736,4.736,0,0,0-3.049-.994H68.85v-.842H84.532v.842Z" transform="translate(3.668 -13.995)" fill="#00263a"/><path d="M102.245,17.751H97.411V59.678a4.425,4.425,0,0,0,2.56,3.908,5.923,5.923,0,0,0,2.645.59H103.8l.084.825h-18.7v-.825h1.28a5.369,5.369,0,0,0,3.6-1.28,3.943,3.943,0,0,0,1.5-3.116V20.328a3.85,3.85,0,0,0-1.5-3.066,5.517,5.517,0,0,0-3.6-1.247h-1.28V15.19h22.892q8.566,0,13.543,3.571a11.019,11.019,0,0,1,4.969,9.383,13.011,13.011,0,0,1-4.009,9.72,16.3,16.3,0,0,1-10.208,4.481q2.906,1.162,7.024,6.468c-.067,0,.994,1.213,3.15,3.655s3.891,4.329,5.205,5.694,2.392,2.392,3.234,3.116a11.526,11.526,0,0,0,7.749,2.914v.825H135.9q-7.2,0-11.3-2.577a25.945,25.945,0,0,1-5.66-4.733q-.556-.657-4.6-5.862c-2.712-3.453-4.144-5.306-4.329-5.525q-4.927-5.559-9.214-5.559v-.842c7.109,0,11.4-.337,12.853-.994a10.384,10.384,0,0,0,4.11-2.982,12.642,12.642,0,0,0,2.274-7.311,9.583,9.583,0,0,0-3.285-7.8,14.379,14.379,0,0,0-8.844-2.982C106.254,17.768,104.368,17.751,102.245,17.751Z" transform="translate(11.358 -14.011)" fill="#00263a"/><path d="M136.907,64.161a7.026,7.026,0,0,0,4.279-1.331,3.856,3.856,0,0,0,1.819-3.15v-39.2a3.834,3.834,0,0,0-1.819-3.15A7.19,7.19,0,0,0,136.806,16h-1.179v-.825h20.6V16H155.05a7.292,7.292,0,0,0-4.245,1.247,4.192,4.192,0,0,0-1.954,3.066V59.764a4.008,4.008,0,0,0,1.92,3.116,7.217,7.217,0,0,0,4.279,1.28h1.179l.084.825H135.627v-.825h1.28Z" transform="translate(18.084 -14.013)" fill="#00263a"/><path d="M162.933,62.394a18.84,18.84,0,0,1-.27-4.076,17.587,17.587,0,0,1,1.179-6.233h1.095a11.186,11.186,0,0,0-.084,1.5,9.366,9.366,0,0,0,3.234,7.344q3.234,2.855,8.978,2.864,6.014,0,9.383-2.527a7.853,7.853,0,0,0,3.369-6.553,8.261,8.261,0,0,0-3.285-6.687L168.29,35.24a10.982,10.982,0,0,1-4.38-9.13,10.151,10.151,0,0,1,1.954-5.98,13.6,13.6,0,0,1,5.475-4.363,19.555,19.555,0,0,1,8.254-1.617,42.779,42.779,0,0,1,8.389.741H191l.185,9.046h-1.011a6.23,6.23,0,0,0-2.645-5.39c-1.769-1.28-4.279-1.9-7.563-1.9a13.569,13.569,0,0,0-8.119,2.291,6.956,6.956,0,0,0-3.184,5.9c0,2.409,1.179,4.5,3.554,6.266L190.626,44.05a10.393,10.393,0,0,1,4.194,8.81,11.979,11.979,0,0,1-4.7,9.551,17.258,17.258,0,0,1-11.438,3.908,41.2,41.2,0,0,1-8.928-.994A16.931,16.931,0,0,1,162.933,62.394Z" transform="translate(21.688 -14.15)" fill="#00263a"/><path d="M31.464,77.951a1.148,1.148,0,0,0,.809-.3,1.069,1.069,0,0,0,.354-.741V67.726a1.069,1.069,0,0,0-.354-.741,1.148,1.148,0,0,0-.809-.3h-.236v-.168H35.22v.168h-.236a1.09,1.09,0,0,0-.994.522,1.018,1.018,0,0,0-.168.539v9.888h2.611a3.4,3.4,0,0,0,2.055-.539,4.2,4.2,0,0,0,1.179-1.617h.185l-1.061,2.678H31.245v-.168h.219Z" transform="translate(4.164 -7.168)" fill="#00263a"/><path d="M42.812,68.419a7.561,7.561,0,0,1,6.165,0A5.468,5.468,0,0,1,51.2,70.271a4.813,4.813,0,0,1,0,5.39,5.58,5.58,0,0,1-2.224,1.853,6.665,6.665,0,0,1-2.88.657,8.19,8.19,0,0,1-2.611-.387,6.059,6.059,0,0,1-1.954-1.061,5,5,0,0,1-1.314-1.651,5.155,5.155,0,0,1-.489-2.291,4.3,4.3,0,0,1,.825-2.51A5.684,5.684,0,0,1,42.812,68.419Zm-.337,7.951a5.107,5.107,0,0,0,6.839,0,4.84,4.84,0,0,0,0-6.772,5.107,5.107,0,0,0-6.839,0,4.84,4.84,0,0,0,0,6.772Z" transform="translate(5.297 -7.002)" fill="#00263a"/><path d="M53.8,76.755a4.773,4.773,0,0,1-1.634-3.79,4.7,4.7,0,0,1,1.634-3.79,6.258,6.258,0,0,1,4.211-1.4,9,9,0,0,1,4.38.994l.4,2.358h-.168a3.437,3.437,0,0,0-1.482-2.156,5.777,5.777,0,0,0-3.116-.691,4.47,4.47,0,0,0-3.285,1.263,4.643,4.643,0,0,0-1.263,3.436,4.587,4.587,0,0,0,1.28,3.436,4.768,4.768,0,0,0,3.521,1.263,5.644,5.644,0,0,0,3.874-1.449l.017-2.207a.5.5,0,0,0-.2-.472.98.98,0,0,0-.623-.168H61.1v-.168h3.335v.168h-.253c-.539,0-.825.219-.825.657v1.988a6.434,6.434,0,0,1-2.106,1.5,7.148,7.148,0,0,1-3.083.64A6.442,6.442,0,0,1,53.8,76.755Z" transform="translate(6.956 -7)" fill="#00263a"/><path d="M64.129,78.151a.952.952,0,0,0,.707-.27.78.78,0,0,0,.286-.623V69.425a.835.835,0,0,0-.286-.623,1.087,1.087,0,0,0-.707-.27h-.2v-.168h3.588l-.017.168h-.185a1.011,1.011,0,0,0-.707.253.773.773,0,0,0-.3.623v7.867a.919.919,0,0,0,.3.623,1.072,1.072,0,0,0,.707.253H67.5l.017.168H63.927v-.168h.2Zm1.6-10.848-.135-.118c.926-.91,1.684-1.634,2.291-2.173a4.183,4.183,0,0,1,.741.876C67.869,66.309,66.908,66.764,65.729,67.3Z" transform="translate(8.524 -7.368)" fill="#00263a"/><path d="M68.9,77.4a4.083,4.083,0,0,1-.051-.809,3.7,3.7,0,0,1,.236-1.247H69.3a1.831,1.831,0,0,0-.017.3,1.914,1.914,0,0,0,.64,1.466,2.586,2.586,0,0,0,1.786.573,3.012,3.012,0,0,0,1.87-.505,1.555,1.555,0,0,0,.674-1.314,1.635,1.635,0,0,0-.657-1.331l-3.639-2.56a2.175,2.175,0,0,1-.876-1.819,2.066,2.066,0,0,1,.387-1.2,2.612,2.612,0,0,1,1.095-.876,3.85,3.85,0,0,1,1.651-.32,8.046,8.046,0,0,1,1.668.152h.606l.034,1.8h-.2a1.233,1.233,0,0,0-.522-1.078,2.582,2.582,0,0,0-1.516-.387,2.7,2.7,0,0,0-1.617.455,1.394,1.394,0,0,0-.64,1.179,1.521,1.521,0,0,0,.707,1.247l3.672,2.594a2.088,2.088,0,0,1,.842,1.752,2.392,2.392,0,0,1-.943,1.9,3.431,3.431,0,0,1-2.291.775,8.063,8.063,0,0,1-1.786-.2A3.028,3.028,0,0,1,68.9,77.4Z" transform="translate(9.18 -7.002)" fill="#00263a"/><path d="M81.217,68.49v8.423a.871.871,0,0,0,.539.758,1.083,1.083,0,0,0,.522.118h.2v.168H78.724v-.168h.219a1.06,1.06,0,0,0,.741-.27A.816.816,0,0,0,80,76.9V68.49H76.7a.838.838,0,0,0-.657.253.827.827,0,0,0-.219.59v.27h-.2v-1.87a4.99,4.99,0,0,0,1.028.2,9.039,9.039,0,0,0,.994.067h5.929a5.951,5.951,0,0,0,2.038-.27V69.6h-.185v-.27a.765.765,0,0,0-.253-.59.889.889,0,0,0-.657-.253Z" transform="translate(10.083 -7.006)" fill="#00263a"/><path d="M85.806,77.757a1.409,1.409,0,0,0,.859-.27.781.781,0,0,0,.371-.623V69.031a.74.74,0,0,0-.371-.623,1.5,1.5,0,0,0-.876-.27h-.236V67.97h4.11v.168h-.236a1.423,1.423,0,0,0-.842.253A.82.82,0,0,0,88.2,69v7.867a.8.8,0,0,0,.387.623,1.439,1.439,0,0,0,.859.253h.219l.017.168H85.553V77.74h.253Z" transform="translate(11.407 -6.974)" fill="#00263a"/><path d="M92.238,76.774a5.29,5.29,0,0,1,0-7.614,6.524,6.524,0,0,1,4.4-1.4,9.533,9.533,0,0,1,2.274.27,7.635,7.635,0,0,1,1.988.724l.4,2.358h-.168c-.522-1.9-2.021-2.847-4.514-2.847A4.6,4.6,0,0,0,93.2,69.53a4.657,4.657,0,0,0-1.263,3.453,5.073,5.073,0,0,0,.573,2.476,3.919,3.919,0,0,0,1.634,1.634,5.14,5.14,0,0,0,2.493.573,7.349,7.349,0,0,0,2.476-.387,3.83,3.83,0,0,0,2.56-3.5h.168l-.2,2.274a4.816,4.816,0,0,1-2.055,1.567,7.362,7.362,0,0,1-2.948.573A6.618,6.618,0,0,1,92.238,76.774Z" transform="translate(12.083 -7.002)" fill="#00263a"/><path d="M113.165,77.782h.152v.168h-3.74v-.168h.152a.609.609,0,0,0,.522-.219.713.713,0,0,0,.185-.4.907.907,0,0,0-.067-.371l-.994-2.207h-4.6l-.994,2.156a.966.966,0,0,0-.084.4.71.71,0,0,0,.185.421.643.643,0,0,0,.539.219h.152v.168h-3.5v-.168h.152a1.582,1.582,0,0,0,.775-.236,1.932,1.932,0,0,0,.64-.724q3.992-7.757,4.144-8.119a3.425,3.425,0,0,0,.32-.926h.168l4.5,9.046A1.586,1.586,0,0,0,113.165,77.782ZM105,74.076h4.144L107.1,69.528Z" transform="translate(13.476 -7)" fill="#00263a"/><path d="M126.538,66.665a1.09,1.09,0,0,0-.994.522,1.131,1.131,0,0,0-.168.539v7.311a3.279,3.279,0,0,1-3.318,3.318V78.2a2.885,2.885,0,0,0,1.516-1.213,3.65,3.65,0,0,0,.623-2v-7.26a1.069,1.069,0,0,0-.354-.741,1.148,1.148,0,0,0-.809-.3H122.8v-.168h3.992v.168h-.253Z" transform="translate(16.274 -7.168)" fill="#00263a"/><path d="M138.971,68.136h-.27a.86.86,0,0,0-.741.354.818.818,0,0,0-.135.354v5.593a3.367,3.367,0,0,1-1.213,2.729,5.038,5.038,0,0,1-3.318,1.011,5.178,5.178,0,0,1-3.335-.994,3.311,3.311,0,0,1-1.213-2.712V68.877a.622.622,0,0,0-.253-.505.955.955,0,0,0-.623-.2h-.27V68h3.453v.168h-.27a.988.988,0,0,0-.623.2.622.622,0,0,0-.253.505v5.39a3.546,3.546,0,0,0,.893,2.544,3.372,3.372,0,0,0,2.544.926,3.856,3.856,0,0,0,2.645-.876,3.063,3.063,0,0,0,.994-2.409V68.877a.726.726,0,0,0-.27-.522.941.941,0,0,0-.606-.2h-.27v-.168h3.133v.152Z" transform="translate(17.013 -6.972)" fill="#00263a"/><path d="M142.48,68.475h-.96v8.372a.889.889,0,0,0,.505.775,1.083,1.083,0,0,0,.522.118h.236l.017.168h-3.74V77.74h.253a1.085,1.085,0,0,0,.724-.253.773.773,0,0,0,.3-.623V69a.742.742,0,0,0-.3-.606,1.085,1.085,0,0,0-.724-.253h-.253V67.97h4.565a4.531,4.531,0,0,1,2.7.707,2.2,2.2,0,0,1,.994,1.87,2.581,2.581,0,0,1-.809,1.937,3.2,3.2,0,0,1-2.038.893,3.9,3.9,0,0,1,1.4,1.3c-.017,0,.2.236.623.724.438.489.775.859,1.044,1.129.253.27.472.472.64.623a2.3,2.3,0,0,0,1.55.573v.168h-.556a4.108,4.108,0,0,1-2.257-.522,5.018,5.018,0,0,1-1.129-.943c-.067-.084-.387-.472-.926-1.162S144.03,74.2,144,74.169a2.651,2.651,0,0,0-1.836-1.112v-.168a8.861,8.861,0,0,0,2.56-.2,2.123,2.123,0,0,0,.825-.59A2.516,2.516,0,0,0,146,70.631a1.94,1.94,0,0,0-.657-1.567,2.853,2.853,0,0,0-1.769-.59C143.289,68.492,142.9,68.475,142.48,68.475Z" transform="translate(18.541 -6.974)" fill="#00263a"/><path d="M149.34,78.151a.952.952,0,0,0,.707-.27.78.78,0,0,0,.286-.623V69.425a.835.835,0,0,0-.286-.623,1.087,1.087,0,0,0-.707-.27h-.2v-.168h3.588l-.017.168h-.185a1.011,1.011,0,0,0-.707.253.773.773,0,0,0-.3.623v7.867a.919.919,0,0,0,.3.623,1.072,1.072,0,0,0,.707.253h.185l.017.168h-3.588v-.168h.2ZM150.957,67.3l-.135-.118c.926-.91,1.684-1.634,2.291-2.173a4.183,4.183,0,0,1,.741.876C153.08,66.309,152.119,66.764,150.957,67.3Z" transform="translate(19.885 -7.368)" fill="#00263a"/><path d="M165.984,72.941a4.538,4.538,0,0,1-1.567,3.639,6.361,6.361,0,0,1-4.262,1.331h-6.081v-.168h.236a.992.992,0,0,0,.724-.27.8.8,0,0,0,.3-.623V69.016a.822.822,0,0,0-.32-.64,1.1,1.1,0,0,0-.741-.253h-.219v-.168h6.081a7.592,7.592,0,0,1,3.1.59,4.619,4.619,0,0,1,2.021,1.718A4.91,4.91,0,0,1,165.984,72.941Zm-9.467-4.464v8.945h3.622a4.58,4.58,0,0,0,3.318-1.2,5.009,5.009,0,0,0,0-6.536,4.484,4.484,0,0,0-3.318-1.2h-3.622Z" transform="translate(20.541 -6.976)" fill="#00263a"/><path d="M166.275,77.757a1.409,1.409,0,0,0,.859-.27.781.781,0,0,0,.371-.623V69.031a.74.74,0,0,0-.371-.623,1.5,1.5,0,0,0-.876-.27h-.236V67.97h4.11v.168H169.9a1.423,1.423,0,0,0-.842.253.82.82,0,0,0-.387.606v7.867a.8.8,0,0,0,.387.623,1.439,1.439,0,0,0,.859.253h.236l.017.168h-4.127V77.74h.236Z" transform="translate(22.136 -6.974)" fill="#00263a"/><path d="M172.708,76.774a5.29,5.29,0,0,1,0-7.614,6.524,6.524,0,0,1,4.4-1.4,9.533,9.533,0,0,1,2.274.27,7.635,7.635,0,0,1,1.988.724l.4,2.358H181.6c-.522-1.9-2.021-2.847-4.514-2.847a4.6,4.6,0,0,0-3.42,1.263,4.657,4.657,0,0,0-1.263,3.453,5.073,5.073,0,0,0,.573,2.476,3.919,3.919,0,0,0,1.634,1.634,5.14,5.14,0,0,0,2.493.573,7.349,7.349,0,0,0,2.476-.387,3.83,3.83,0,0,0,2.56-3.5h.168l-.2,2.274a4.816,4.816,0,0,1-2.055,1.567,7.362,7.362,0,0,1-2.948.573A6.618,6.618,0,0,1,172.708,76.774Z" transform="translate(22.812 -7.002)" fill="#00263a"/><path d="M193.645,77.782h.152v.168h-3.74v-.168h.152a.609.609,0,0,0,.522-.219.713.713,0,0,0,.185-.4.906.906,0,0,0-.067-.371l-.994-2.207h-4.6l-.994,2.156a.966.966,0,0,0-.084.4.71.71,0,0,0,.185.421.643.643,0,0,0,.539.219h.152v.168h-3.47v-.168h.152a1.582,1.582,0,0,0,.775-.236,1.932,1.932,0,0,0,.64-.724q3.992-7.757,4.144-8.119a3.425,3.425,0,0,0,.32-.926h.168l4.5,9.046A1.473,1.473,0,0,0,193.645,77.782Zm-8.17-3.706h4.144l-2.038-4.548Z" transform="translate(24.211 -7)" fill="#00263a"/></g></svg>